{"title":"Journeys End 2018 Movies BRRip x264 5.1 with Sample ☻rDX☻","magnet":"magnet:?xt=urn:btih:95f37990e1f45fa98a6a7cfa419806aa9636aa1e&dn=Journeys+End+2018+Movies+BRRip+x264+5.1+with+Sample+%E2%98%BBrDX%E2%98%BB&tr=udp%3A%2F%2Ftracker.leechers-paradise.org%3A6969&tr=udp%3A%2F%2Fzer0day.ch%3A1337&tr=udp%3A%2F%2Fopen.demonii.com%3A1337&tr=udp%3A%2F%2Ftracker.coppersurfer.tk%3A6969&tr=udp%3A%2F%2Fexodus.desync.com%3A6969","uploader":"basicssom","categoryP":"video","categoryS":"movies","size":"888318946","seeders":"25","leechers":"16","description":"----------------------------------------------------------------\r\nJourneys End 2018 Movies BRRip x264 5.1 with Sample &#x263B;rDX&#x263B;\r\n\r\nSCREEN SHOTS &amp; POSTER:\r\n   <a href=\"\nhttp://iphonehosting.eu/2018/5/a/computers/index.html\" rel=\"nofollow\" target=\"_NEW\">\nhttp://iphonehosting.eu/2018/5/a/computers/index.html</a> <a href=\"\nhttp://iphonehosting.eu/2018/5/a/computers/1.html\" rel=\"nofollow\" target=\"_NEW\">\nhttp://iphonehosting.eu/2018/5/a/computers/1.html</a> <a href=\"\nhttp://iphonehosting.eu/2018/5/a/computers/2.html\" rel=\"nofollow\" target=\"_NEW\">\nhttp://iphonehosting.eu/2018/5/a/computers/2.html</a>   <a href=\"\nhttp://iphonehosting.eu/2018/5/a/computers/3.html\" rel=\"nofollow\" target=\"_NEW\">\nhttp://iphonehosting.eu/2018/5/a/computers/3.html</a>   <a href=\"\nhttp://iphonehosting.eu/2018/5/a/computers/4.html\" rel=\"nofollow\" target=\"_NEW\">\nhttp://iphonehosting.eu/2018/5/a/computers/4.html</a>   <a href=\"\nhttp://iphonehosting.eu/2018/5/a/computers/5.html\" rel=\"nofollow\" target=\"_NEW\">\nhttp://iphonehosting.eu/2018/5/a/computers/5.html</a>   <a href=\"\nhttp://iphonehosting.eu/2018/5/a/computers/6.html\" rel=\"nofollow\" target=\"_NEW\">\nhttp://iphonehosting.eu/2018/5/a/computers/6.html</a>   <a href=\"\nhttp://iphonehosting.eu/2018/5/a/computers/7.html\" rel=\"nofollow\" target=\"_NEW\">\nhttp://iphonehosting.eu/2018/5/a/computers/7.html</a>   <a href=\"\nhttp://iphonehosting.eu/2018/5/a/computers/8.html\" rel=\"nofollow\" target=\"_NEW\">\nhttp://iphonehosting.eu/2018/5/a/computers/8.html</a>   <a href=\"\nhttp://iphonehosting.eu/2018/5/a/computers/9.html\" rel=\"nofollow\" target=\"_NEW\">\nhttp://iphonehosting.eu/2018/5/a/computers/9.html</a>   <a href=\"\nhttp://iphonehosting.eu/2018/5/a/computers/10.html\" rel=\"nofollow\" target=\"_NEW\">\nhttp://iphonehosting.eu/2018/5/a/computers/10.html</a>\r\n\r\nFile size                                : 839 MiB\r\nDuration                                 : 1 h 47 min\r\nOverall bit rate mode                    : Constant\r\nOverall bit rate                         : 1 089 kb/s\r\nMovie name                               : Journeys End 2018 Movies BRRip x264 5.1 &#x263B;rDX&#x263B;\r\n\r\nVideo\r\nID                                       : 2\r\nFormat                                   : AVC\r\nFormat/Info                              : Advanced Video Codec\r\nFormat profile                           : Main@L3\r\nFormat settings, CABAC                   : Yes\r\nFormat settings, ReFrames                : 2 frames\r\nFormat settings, GOP                     : M=1, N=12\r\nCodec ID                                 : V_MPEG4/ISO/AVC\r\nDuration                                 : 1 h 47 min\r\nBit rate mode                            : Constant\r\nBit rate                                 : 642 kb/s\r\nWidth                                    : 720 pixels\r\nHeight                                   : 302 pixels\r\nDisplay aspect ratio                     : 2.40:1\r\nFrame rate mode                          : Constant\r\nFrame rate                               : 24.000 FPS\r\nColor space                              : YUV\r\nChroma subsampling                       : 4:2:0\r\nBit depth                                : 8 bits\r\nScan type                                : Progressive\r\nBits/(Pixel*Frame)                       : 0.123\r\nStream size                              : 477 MiB (57%)\r\nTitle                                    : &#x263B;rDX&#x263B;\r\nDefault                                  : Yes\r\nForced                                   : No\r\n\r\nAudio\r\nID                                       : 1\r\nFormat                                   : AC-3\r\nFormat/Info                              : Audio Coding 3\r\nMode extension                           : CM (complete main)\r\nFormat settings, Endianness              : Big\r\nCodec ID                                 : A_AC3\r\nDuration                                 : 1 h 47 min\r\nBit rate mode                            : Constant\r\nBit rate                                 : 448 kb/s\r\nChannel(s)                               : 6 channels\r\nChannel positions                        : Front: L C R, Side: L R, LFE\r\nSampling rate                            : 48.0 kHz\r\nFrame rate                               : 31.250 FPS (1536 spf)\r\nBit depth                                : 16 bits\r\nCompression mode                         : Lossy\r\nStream size                              : 345 MiB (41%)\r\nTitle                                    : &#x263B;rDX&#x263B;\r\nDefault                                  : Yes\r\nForced                                   : No","last_updated":"2018-06-03T12:14:17.237Z","parsed":{"xt":"urn:btih:95f37990e1f45fa98a6a7cfa419806aa9636aa1e","dn":"Journeys End 2018 Movies BRRip x264 5.1 with Sample ☻rDX☻","tr":["udp://exodus.desync.com:6969","udp://open.demonii.com:1337","udp://tracker.coppersurfer.tk:6969","udp://tracker.leechers-paradise.org:6969","udp://zer0day.ch:1337"],"infoHash":"95f37990e1f45fa98a6a7cfa419806aa9636aa1e","infoHashBuffer":{"type":"Buffer","data":[149,243,121,144,225,244,95,169,138,106,124,250,65,152,6,170,150,54,170,30]},"name":"Journeys End 2018 Movies BRRip x264 5.1 with Sample ☻rDX☻","announce":["udp://exodus.desync.com:6969","udp://open.demonii.com:1337","udp://tracker.coppersurfer.tk:6969","udp://tracker.leechers-paradise.org:6969","udp://zer0day.ch:1337"],"urlList":[]}}